<svg xmlns="http://www.w3.org/2000/svg" width="96" height="96" viewBox="0 0 96 96" role="img" aria-labelledby="title desc">
  <title id="title">Portale Timbri LSPD</title>
  <desc id="desc">Marchio grafico con documento e segno di conferma.</desc>
  <rect width="96" height="96" rx="18" fill="#247f68"/>
  <path d="M29 20h26l12 12v42a4 4 0 0 1-4 4H29a4 4 0 0 1-4-4V24a4 4 0 0 1 4-4Z" fill="#fffaf0"/>
  <path d="M55 20v11a3 3 0 0 0 3 3h9" fill="none" stroke="#155d4d" stroke-width="5" stroke-linejoin="round"/>
  <path d="M35 44h23M35 54h23M35 64h12" stroke="#6f675d" stroke-width="5" stroke-linecap="round"/>
  <circle cx="65" cy="66" r="15" fill="#d79d25"/>
  <path d="m58 66 5 5 10-12" fill="none" stroke="#25221d" stroke-width="5" stroke-linecap="round" stroke-linejoin="round"/>
</svg>
